# xmcd CD database file
#
# Track frame offsets:
#	150
#	12951
#	27727
#	42363
#	53928
#	67499
#	79433
#	92564
#	107491
#	121356
#	134412
#	146349
#	158056
#	169744
#	182677
#	195252
#	206650
#	219927
#	234327
#	248187
#	259954
#	274050
#	288372
#	300124
#	313461
#	325605
#	338327
#
# Disc length: 4685 seconds
#
# Revision: 2
# Processed by: cddbd v1.5.2PL0 Copyright (c) Steve Scherf et al.
# Submitted via: CDex 1.51
#
DISCID=85124b1b
DTITLE=Various Artist - Trio - Logia Los Mejores Trios
DYEAR=2007
DGENRE=Bolero
TTITLE0=Los Panchos - Rayito De Luna
TTITLE1=Los Tres Diamantes - Usted
TTITLE2=Los Tres Ases - Estoy Perdido
TTITLE3=Los Dandys - Gema
TTITLE4=Los Tres Reyes - Poquita Fe Sin Fe
TTITLE5=Los Hermanos Michel - Luna De Octubre
TTITLE6=Los Hermanos Martinez Gil - Chacha Linda
TTITLE7=Eydie Gorme - Noche De Ronda
TTITLE8=los Montejo - El Andariego (Remasterizado)
TTITLE9=Los Jaibos - Loca Pasion
TTITLE10=El Negro Peregrino y su Trio - Nochecita
TTITLE11=Trio Calaveras - Te Traigo Serenata
TTITLE12=Yolanda Y Su Trio Perla Negra - Espumas
TTITLE13=Trio Caribe - Ahora Seremos Felices
TTITLE14=Los Besos De Plata
TTITLE15=Tr?o Las Sombras - Noche No Te Vayas (Remasterizado)
TTITLE16=Albur (Remasterizado)
TTITLE17=Tr?o Monterrey - Ojos Cafes (Remasterizado)
TTITLE18=Pobre Del Pobre
TTITLE19=El Rebozo
TTITLE20=Los Tres Caballeros - Perdon
TTITLE21=Los Fantasmas - Pagina Blanca
TTITLE22=Cari?ito Azucarado
TTITLE23=Los Dandys - Tres Regalos
TTITLE24=Los Panchos - Lo Dudo
TTITLE25=Los Tres Ases - La Enramada
TTITLE26=Los Tres Diamantes - La Gloria Eres Tu
EXTD=Powerd by gracenote music web API YEAR: 2007
EXTT0=
EXTT1=
EXTT2=
EXTT3=
EXTT4=
EXTT5=
EXTT6=
EXTT7=
EXTT8=
EXTT9=
EXTT10=
EXTT11=
EXTT12=
EXTT13=
EXTT14=
EXTT15=
EXTT16=
EXTT17=
EXTT18=
EXTT19=
EXTT20=
EXTT21=
EXTT22=
EXTT23=
EXTT24=
EXTT25=
EXTT26=
PLAYORDER=
